<svg width="137" height="29" viewBox="0 0 137 29" fill="none" xmlns="http://www.w3.org/2000/svg">
<path d="M11.6523 18.6289H4.32812V14.4102H11.6523C12.8503 14.4102 13.8203 14.2148 14.5625 13.8242C15.3177 13.4206 15.8711 12.8737 16.2227 12.1836C16.5742 11.4805 16.75 10.6797 16.75 9.78125C16.75 8.90885 16.5742 8.09505 16.2227 7.33984C15.8711 6.58464 15.3177 5.97266 14.5625 5.50391C13.8203 5.03516 12.8503 4.80078 11.6523 4.80078H6.08594V29H0.714844V0.5625H11.6523C13.8659 0.5625 15.7539 0.959635 17.3164 1.75391C18.8919 2.53516 20.0898 3.6224 20.9102 5.01562C21.7435 6.39583 22.1602 7.97135 22.1602 9.74219C22.1602 11.5781 21.7435 13.1602 20.9102 14.4883C20.0898 15.8164 18.8919 16.8385 17.3164 17.5547C15.7539 18.2708 13.8659 18.6289 11.6523 18.6289ZM38.6016 4.87891L30.4961 29H24.8125L35.4375 0.5625H39.0703L38.6016 4.87891ZM45.3789 29L37.2344 4.87891L36.7461 0.5625H40.3984L51.082 29H45.3789ZM45.0078 18.4336V22.6719H29.7539V18.4336H45.0078ZM68.9492 18.6289H61.625V14.4102H68.9492C70.1471 14.4102 71.1172 14.2148 71.8594 13.8242C72.6146 13.4206 73.168 12.8737 73.5195 12.1836C73.8711 11.4805 74.0469 10.6797 74.0469 9.78125C74.0469 8.90885 73.8711 8.09505 73.5195 7.33984C73.168 6.58464 72.6146 5.97266 71.8594 5.50391C71.1172 5.03516 70.1471 4.80078 68.9492 4.80078H63.3828V29H58.0117V0.5625H68.9492C71.1628 0.5625 73.0508 0.959635 74.6133 1.75391C76.1888 2.53516 77.3867 3.6224 78.207 5.01562C79.0404 6.39583 79.457 7.97135 79.457 9.74219C79.457 11.5781 79.0404 13.1602 78.207 14.4883C77.3867 15.8164 76.1888 16.8385 74.6133 17.5547C73.0508 18.2708 71.1628 18.6289 68.9492 18.6289ZM106.523 24.7812V29H91.4062V24.7812H106.523ZM93.0469 0.5625V29H87.6758V0.5625H93.0469ZM104.551 12.3008V16.4219H91.4062V12.3008H104.551ZM106.465 0.5625V4.80078H91.4062V0.5625H106.465ZM114.254 0.5625H124.586C126.747 0.5625 128.603 0.888021 130.152 1.53906C131.702 2.1901 132.893 3.15365 133.727 4.42969C134.56 5.70573 134.977 7.27474 134.977 9.13672C134.977 10.6081 134.716 11.8841 134.195 12.9648C133.674 14.0456 132.939 14.9505 131.988 15.6797C131.051 16.4089 129.944 16.9818 128.668 17.3984L126.988 18.2578H117.867L117.828 14.0195H124.645C125.751 14.0195 126.669 13.8242 127.398 13.4336C128.128 13.043 128.674 12.5026 129.039 11.8125C129.417 11.1224 129.605 10.3346 129.605 9.44922C129.605 8.4987 129.423 7.67839 129.059 6.98828C128.694 6.28516 128.141 5.74479 127.398 5.36719C126.656 4.98958 125.719 4.80078 124.586 4.80078H119.625V29H114.254V0.5625ZM130.309 29L123.727 16.2656L129.41 16.2461L136.07 28.7266V29H130.309Z" fill="white"/>
</svg>
