<svg width="115" height="30" viewBox="0 0 115 30" fill="none" xmlns="http://www.w3.org/2000/svg">
<path d="M0.714844 0.5625H11.0469C13.2083 0.5625 15.0638 0.888021 16.6133 1.53906C18.1628 2.1901 19.3542 3.15365 20.1875 4.42969C21.0208 5.70573 21.4375 7.27474 21.4375 9.13672C21.4375 10.6081 21.1771 11.8841 20.6562 12.9648C20.1354 14.0456 19.3997 14.9505 18.4492 15.6797C17.5117 16.4089 16.4049 16.9818 15.1289 17.3984L13.4492 18.2578H4.32812L4.28906 14.0195H11.1055C12.2122 14.0195 13.1302 13.8242 13.8594 13.4336C14.5885 13.043 15.1354 12.5026 15.5 11.8125C15.8776 11.1224 16.0664 10.3346 16.0664 9.44922C16.0664 8.4987 15.8841 7.67839 15.5195 6.98828C15.1549 6.28516 14.6016 5.74479 13.8594 5.36719C13.1172 4.98958 12.1797 4.80078 11.0469 4.80078H6.08594V29H0.714844V0.5625ZM16.7695 29L10.1875 16.2656L15.8711 16.2461L22.5312 28.7266V29H16.7695ZM53.1719 14.0586V15.5234C53.1719 17.6719 52.8854 19.6055 52.3125 21.3242C51.7396 23.0299 50.9258 24.4818 49.8711 25.6797C48.8164 26.8776 47.5599 27.7956 46.1016 28.4336C44.6432 29.0716 43.0221 29.3906 41.2383 29.3906C39.4805 29.3906 37.8659 29.0716 36.3945 28.4336C34.9362 27.7956 33.6732 26.8776 32.6055 25.6797C31.5378 24.4818 30.7109 23.0299 30.125 21.3242C29.5391 19.6055 29.2461 17.6719 29.2461 15.5234V14.0586C29.2461 11.8971 29.5391 9.96354 30.125 8.25781C30.7109 6.55208 31.5312 5.10026 32.5859 3.90234C33.6406 2.69141 34.8971 1.76693 36.3555 1.12891C37.8268 0.490885 39.4414 0.171875 41.1992 0.171875C42.9831 0.171875 44.6042 0.490885 46.0625 1.12891C47.5208 1.76693 48.7773 2.69141 49.832 3.90234C50.8997 5.10026 51.7201 6.55208 52.293 8.25781C52.8789 9.96354 53.1719 11.8971 53.1719 14.0586ZM47.7422 15.5234V14.0195C47.7422 12.4701 47.599 11.1094 47.3125 9.9375C47.026 8.7526 46.6029 7.75651 46.043 6.94922C45.4831 6.14193 44.793 5.53646 43.9727 5.13281C43.1523 4.71615 42.2279 4.50781 41.1992 4.50781C40.1576 4.50781 39.2331 4.71615 38.4258 5.13281C37.6315 5.53646 36.9544 6.14193 36.3945 6.94922C35.8346 7.75651 35.4049 8.7526 35.1055 9.9375C34.819 11.1094 34.6758 12.4701 34.6758 14.0195V15.5234C34.6758 17.0599 34.819 18.4206 35.1055 19.6055C35.4049 20.7904 35.8346 21.793 36.3945 22.6133C36.9674 23.4206 37.6576 24.0326 38.4648 24.4492C39.2721 24.8659 40.1966 25.0742 41.2383 25.0742C42.2799 25.0742 43.2044 24.8659 44.0117 24.4492C44.819 24.0326 45.4961 23.4206 46.043 22.6133C46.6029 21.793 47.026 20.7904 47.3125 19.6055C47.599 18.4206 47.7422 17.0599 47.7422 15.5234ZM78.3633 19.6445H83.7344C83.5911 21.5456 83.0638 23.2318 82.1523 24.7031C81.2409 26.1615 79.9714 27.3073 78.3438 28.1406C76.7161 28.974 74.7435 29.3906 72.4258 29.3906C70.6419 29.3906 69.0339 29.0781 67.6016 28.4531C66.1823 27.8151 64.9648 26.9102 63.9492 25.7383C62.9466 24.5534 62.1784 23.1341 61.6445 21.4805C61.1107 19.8138 60.8438 17.9453 60.8438 15.875V13.707C60.8438 11.6367 61.1172 9.76823 61.6641 8.10156C62.2109 6.4349 62.9922 5.01562 64.0078 3.84375C65.0365 2.65885 66.2669 1.7474 67.6992 1.10938C69.1445 0.471354 70.7591 0.152344 72.543 0.152344C74.8607 0.152344 76.8203 0.582031 78.4219 1.44141C80.0234 2.28776 81.2669 3.45312 82.1523 4.9375C83.0378 6.42188 83.5716 8.1276 83.7539 10.0547H78.3828C78.2786 8.85677 78.0182 7.84115 77.6016 7.00781C77.1979 6.17448 76.5859 5.54297 75.7656 5.11328C74.9583 4.67057 73.8841 4.44922 72.543 4.44922C71.5013 4.44922 70.5833 4.64453 69.7891 5.03516C69.0078 5.42578 68.3568 6.01172 67.8359 6.79297C67.3151 7.5612 66.9245 8.52474 66.6641 9.68359C66.4036 10.8294 66.2734 12.1576 66.2734 13.668V15.875C66.2734 17.3203 66.3906 18.6159 66.625 19.7617C66.8594 20.9076 67.224 21.8776 67.7188 22.6719C68.2135 23.4661 68.8516 24.0716 69.6328 24.4883C70.4141 24.9049 71.3451 25.1133 72.4258 25.1133C73.7409 25.1133 74.8086 24.9049 75.6289 24.4883C76.4622 24.0716 77.0938 23.4596 77.5234 22.6523C77.9661 21.8451 78.2461 20.8424 78.3633 19.6445ZM97.2656 0.5625V29H91.8945V0.5625H97.2656ZM114.336 0.5625L102.93 14.4297L96.4062 21.4023L95.4492 16.1875L99.9805 10.3086L107.754 0.5625H114.336ZM108.359 29L99.5117 15.6797L103.359 12.2031L114.746 29H108.359Z" fill="white"/>
</svg>
