<svg width="214" height="30" viewBox="0 0 214 30" fill="none" xmlns="http://www.w3.org/2000/svg">
<path d="M16.5977 21.6172C16.5977 21.0703 16.513 20.582 16.3438 20.1523C16.1875 19.7096 15.8945 19.3125 15.4648 18.9609C15.0482 18.5964 14.4557 18.2448 13.6875 17.9062C12.9323 17.5547 11.9557 17.1901 10.7578 16.8125C9.42969 16.3958 8.19271 15.9271 7.04688 15.4062C5.90104 14.8854 4.89193 14.2799 4.01953 13.5898C3.16016 12.8997 2.48958 12.1055 2.00781 11.207C1.52604 10.2956 1.28516 9.24089 1.28516 8.04297C1.28516 6.87109 1.53255 5.80339 2.02734 4.83984C2.53516 3.8763 3.2513 3.04948 4.17578 2.35938C5.10026 1.65625 6.1875 1.11589 7.4375 0.738281C8.70052 0.360677 10.0938 0.171875 11.6172 0.171875C13.7266 0.171875 15.5495 0.55599 17.0859 1.32422C18.6354 2.09245 19.8333 3.13411 20.6797 4.44922C21.526 5.76432 21.9492 7.24219 21.9492 8.88281H16.5977C16.5977 7.9974 16.4089 7.21615 16.0312 6.53906C15.6667 5.86198 15.1068 5.32812 14.3516 4.9375C13.6094 4.54688 12.6719 4.35156 11.5391 4.35156C10.4453 4.35156 9.53385 4.51432 8.80469 4.83984C8.08854 5.16536 7.54818 5.60807 7.18359 6.16797C6.83203 6.72786 6.65625 7.35286 6.65625 8.04297C6.65625 8.5638 6.77995 9.03255 7.02734 9.44922C7.27474 9.85286 7.64583 10.237 8.14062 10.6016C8.63542 10.9531 9.2474 11.2852 9.97656 11.5977C10.7188 11.8971 11.5781 12.1966 12.5547 12.4961C14.1172 12.9648 15.4844 13.4857 16.6562 14.0586C17.8411 14.6315 18.8242 15.2826 19.6055 16.0117C20.3997 16.7409 20.9922 17.5612 21.3828 18.4727C21.7865 19.3841 21.9883 20.4193 21.9883 21.5781C21.9883 22.8021 21.7474 23.8958 21.2656 24.8594C20.7839 25.8229 20.0938 26.6432 19.1953 27.3203C18.2969 27.9974 17.2161 28.5117 15.9531 28.8633C14.7031 29.2148 13.3034 29.3906 11.7539 29.3906C10.3737 29.3906 9.00651 29.2083 7.65234 28.8438C6.3112 28.4661 5.09375 27.9062 4 27.1641C2.90625 26.4089 2.03385 25.4583 1.38281 24.3125C0.731771 23.1536 0.40625 21.7995 0.40625 20.25H5.79688C5.79688 21.1484 5.9401 21.9167 6.22656 22.5547C6.52604 23.1797 6.94271 23.694 7.47656 24.0977C8.02344 24.4883 8.66146 24.7747 9.39062 24.957C10.1198 25.1393 10.9076 25.2305 11.7539 25.2305C12.8477 25.2305 13.7461 25.0807 14.4492 24.7812C15.1654 24.4688 15.6992 24.0391 16.0508 23.4922C16.4154 22.9453 16.5977 22.3203 16.5977 21.6172ZM46.7695 19.6445H52.1406C51.9974 21.5456 51.4701 23.2318 50.5586 24.7031C49.6471 26.1615 48.3776 27.3073 46.75 28.1406C45.1224 28.974 43.1497 29.3906 40.832 29.3906C39.0482 29.3906 37.4401 29.0781 36.0078 28.4531C34.5885 27.8151 33.3711 26.9102 32.3555 25.7383C31.3529 24.5534 30.5846 23.1341 30.0508 21.4805C29.5169 19.8138 29.25 17.9453 29.25 15.875V13.707C29.25 11.6367 29.5234 9.76823 30.0703 8.10156C30.6172 6.4349 31.3984 5.01562 32.4141 3.84375C33.4427 2.65885 34.6732 1.7474 36.1055 1.10938C37.5508 0.471354 39.1654 0.152344 40.9492 0.152344C43.2669 0.152344 45.2266 0.582031 46.8281 1.44141C48.4297 2.28776 49.6732 3.45312 50.5586 4.9375C51.444 6.42188 51.9779 8.1276 52.1602 10.0547H46.7891C46.6849 8.85677 46.4245 7.84115 46.0078 7.00781C45.6042 6.17448 44.9922 5.54297 44.1719 5.11328C43.3646 4.67057 42.2904 4.44922 40.9492 4.44922C39.9076 4.44922 38.9896 4.64453 38.1953 5.03516C37.4141 5.42578 36.763 6.01172 36.2422 6.79297C35.7214 7.5612 35.3307 8.52474 35.0703 9.68359C34.8099 10.8294 34.6797 12.1576 34.6797 13.668V15.875C34.6797 17.3203 34.7969 18.6159 35.0312 19.7617C35.2656 20.9076 35.6302 21.8776 36.125 22.6719C36.6198 23.4661 37.2578 24.0716 38.0391 24.4883C38.8203 24.9049 39.7513 25.1133 40.832 25.1133C42.1471 25.1133 43.2148 24.9049 44.0352 24.4883C44.8685 24.0716 45.5 23.4596 45.9297 22.6523C46.3724 21.8451 46.6523 20.8424 46.7695 19.6445ZM66.0234 0.5625V29H60.6523V0.5625H66.0234ZM90.707 21.6172C90.707 21.0703 90.6224 20.582 90.4531 20.1523C90.2969 19.7096 90.0039 19.3125 89.5742 18.9609C89.1576 18.5964 88.5651 18.2448 87.7969 17.9062C87.0417 17.5547 86.0651 17.1901 84.8672 16.8125C83.5391 16.3958 82.3021 15.9271 81.1562 15.4062C80.0104 14.8854 79.0013 14.2799 78.1289 13.5898C77.2695 12.8997 76.599 12.1055 76.1172 11.207C75.6354 10.2956 75.3945 9.24089 75.3945 8.04297C75.3945 6.87109 75.6419 5.80339 76.1367 4.83984C76.6445 3.8763 77.3607 3.04948 78.2852 2.35938C79.2096 1.65625 80.2969 1.11589 81.5469 0.738281C82.8099 0.360677 84.2031 0.171875 85.7266 0.171875C87.8359 0.171875 89.6589 0.55599 91.1953 1.32422C92.7448 2.09245 93.9427 3.13411 94.7891 4.44922C95.6354 5.76432 96.0586 7.24219 96.0586 8.88281H90.707C90.707 7.9974 90.5182 7.21615 90.1406 6.53906C89.776 5.86198 89.2161 5.32812 88.4609 4.9375C87.7188 4.54688 86.7812 4.35156 85.6484 4.35156C84.5547 4.35156 83.6432 4.51432 82.9141 4.83984C82.1979 5.16536 81.6576 5.60807 81.293 6.16797C80.9414 6.72786 80.7656 7.35286 80.7656 8.04297C80.7656 8.5638 80.8893 9.03255 81.1367 9.44922C81.3841 9.85286 81.7552 10.237 82.25 10.6016C82.7448 10.9531 83.3568 11.2852 84.0859 11.5977C84.8281 11.8971 85.6875 12.1966 86.6641 12.4961C88.2266 12.9648 89.5938 13.4857 90.7656 14.0586C91.9505 14.6315 92.9336 15.2826 93.7148 16.0117C94.5091 16.7409 95.1016 17.5612 95.4922 18.4727C95.8958 19.3841 96.0977 20.4193 96.0977 21.5781C96.0977 22.8021 95.8568 23.8958 95.375 24.8594C94.8932 25.8229 94.2031 26.6432 93.3047 27.3203C92.4062 27.9974 91.3255 28.5117 90.0625 28.8633C88.8125 29.2148 87.4128 29.3906 85.8633 29.3906C84.4831 29.3906 83.1159 29.2083 81.7617 28.8438C80.4206 28.4661 79.2031 27.9062 78.1094 27.1641C77.0156 26.4089 76.1432 25.4583 75.4922 24.3125C74.8411 23.1536 74.5156 21.7995 74.5156 20.25H79.9062C79.9062 21.1484 80.0495 21.9167 80.3359 22.5547C80.6354 23.1797 81.0521 23.694 81.5859 24.0977C82.1328 24.4883 82.7708 24.7747 83.5 24.957C84.2292 25.1393 85.0169 25.2305 85.8633 25.2305C86.957 25.2305 87.8555 25.0807 88.5586 24.7812C89.2747 24.4688 89.8086 24.0391 90.1602 23.4922C90.5247 22.9453 90.707 22.3203 90.707 21.6172ZM119.121 21.6172C119.121 21.0703 119.036 20.582 118.867 20.1523C118.711 19.7096 118.418 19.3125 117.988 18.9609C117.572 18.5964 116.979 18.2448 116.211 17.9062C115.456 17.5547 114.479 17.1901 113.281 16.8125C111.953 16.3958 110.716 15.9271 109.57 15.4062C108.424 14.8854 107.415 14.2799 106.543 13.5898C105.684 12.8997 105.013 12.1055 104.531 11.207C104.049 10.2956 103.809 9.24089 103.809 8.04297C103.809 6.87109 104.056 5.80339 104.551 4.83984C105.059 3.8763 105.775 3.04948 106.699 2.35938C107.624 1.65625 108.711 1.11589 109.961 0.738281C111.224 0.360677 112.617 0.171875 114.141 0.171875C116.25 0.171875 118.073 0.55599 119.609 1.32422C121.159 2.09245 122.357 3.13411 123.203 4.44922C124.049 5.76432 124.473 7.24219 124.473 8.88281H119.121C119.121 7.9974 118.932 7.21615 118.555 6.53906C118.19 5.86198 117.63 5.32812 116.875 4.9375C116.133 4.54688 115.195 4.35156 114.062 4.35156C112.969 4.35156 112.057 4.51432 111.328 4.83984C110.612 5.16536 110.072 5.60807 109.707 6.16797C109.355 6.72786 109.18 7.35286 109.18 8.04297C109.18 8.5638 109.303 9.03255 109.551 9.44922C109.798 9.85286 110.169 10.237 110.664 10.6016C111.159 10.9531 111.771 11.2852 112.5 11.5977C113.242 11.8971 114.102 12.1966 115.078 12.4961C116.641 12.9648 118.008 13.4857 119.18 14.0586C120.365 14.6315 121.348 15.2826 122.129 16.0117C122.923 16.7409 123.516 17.5612 123.906 18.4727C124.31 19.3841 124.512 20.4193 124.512 21.5781C124.512 22.8021 124.271 23.8958 123.789 24.8594C123.307 25.8229 122.617 26.6432 121.719 27.3203C120.82 27.9974 119.74 28.5117 118.477 28.8633C117.227 29.2148 115.827 29.3906 114.277 29.3906C112.897 29.3906 111.53 29.2083 110.176 28.8438C108.835 28.4661 107.617 27.9062 106.523 27.1641C105.43 26.4089 104.557 25.4583 103.906 24.3125C103.255 23.1536 102.93 21.7995 102.93 20.25H108.32C108.32 21.1484 108.464 21.9167 108.75 22.5547C109.049 23.1797 109.466 23.694 110 24.0977C110.547 24.4883 111.185 24.7747 111.914 24.957C112.643 25.1393 113.431 25.2305 114.277 25.2305C115.371 25.2305 116.27 25.0807 116.973 24.7812C117.689 24.4688 118.223 24.0391 118.574 23.4922C118.939 22.9453 119.121 22.3203 119.121 21.6172ZM155.68 14.0586V15.5234C155.68 17.6719 155.393 19.6055 154.82 21.3242C154.247 23.0299 153.434 24.4818 152.379 25.6797C151.324 26.8776 150.068 27.7956 148.609 28.4336C147.151 29.0716 145.53 29.3906 143.746 29.3906C141.988 29.3906 140.374 29.0716 138.902 28.4336C137.444 27.7956 136.181 26.8776 135.113 25.6797C134.046 24.4818 133.219 23.0299 132.633 21.3242C132.047 19.6055 131.754 17.6719 131.754 15.5234V14.0586C131.754 11.8971 132.047 9.96354 132.633 8.25781C133.219 6.55208 134.039 5.10026 135.094 3.90234C136.148 2.69141 137.405 1.76693 138.863 1.12891C140.335 0.490885 141.949 0.171875 143.707 0.171875C145.491 0.171875 147.112 0.490885 148.57 1.12891C150.029 1.76693 151.285 2.69141 152.34 3.90234C153.408 5.10026 154.228 6.55208 154.801 8.25781C155.387 9.96354 155.68 11.8971 155.68 14.0586ZM150.25 15.5234V14.0195C150.25 12.4701 150.107 11.1094 149.82 9.9375C149.534 8.7526 149.111 7.75651 148.551 6.94922C147.991 6.14193 147.301 5.53646 146.48 5.13281C145.66 4.71615 144.736 4.50781 143.707 4.50781C142.665 4.50781 141.741 4.71615 140.934 5.13281C140.139 5.53646 139.462 6.14193 138.902 6.94922C138.342 7.75651 137.913 8.7526 137.613 9.9375C137.327 11.1094 137.184 12.4701 137.184 14.0195V15.5234C137.184 17.0599 137.327 18.4206 137.613 19.6055C137.913 20.7904 138.342 21.793 138.902 22.6133C139.475 23.4206 140.165 24.0326 140.973 24.4492C141.78 24.8659 142.704 25.0742 143.746 25.0742C144.788 25.0742 145.712 24.8659 146.52 24.4492C147.327 24.0326 148.004 23.4206 148.551 22.6133C149.111 21.793 149.534 20.7904 149.82 19.6055C150.107 18.4206 150.25 17.0599 150.25 15.5234ZM164.23 0.5625H174.562C176.724 0.5625 178.579 0.888021 180.129 1.53906C181.678 2.1901 182.87 3.15365 183.703 4.42969C184.536 5.70573 184.953 7.27474 184.953 9.13672C184.953 10.6081 184.693 11.8841 184.172 12.9648C183.651 14.0456 182.915 14.9505 181.965 15.6797C181.027 16.4089 179.921 16.9818 178.645 17.3984L176.965 18.2578H167.844L167.805 14.0195H174.621C175.728 14.0195 176.646 13.8242 177.375 13.4336C178.104 13.043 178.651 12.5026 179.016 11.8125C179.393 11.1224 179.582 10.3346 179.582 9.44922C179.582 8.4987 179.4 7.67839 179.035 6.98828C178.671 6.28516 178.117 5.74479 177.375 5.36719C176.633 4.98958 175.695 4.80078 174.562 4.80078H169.602V29H164.23V0.5625ZM180.285 29L173.703 16.2656L179.387 16.2461L186.047 28.7266V29H180.285ZM208.543 21.6172C208.543 21.0703 208.458 20.582 208.289 20.1523C208.133 19.7096 207.84 19.3125 207.41 18.9609C206.993 18.5964 206.401 18.2448 205.633 17.9062C204.878 17.5547 203.901 17.1901 202.703 16.8125C201.375 16.3958 200.138 15.9271 198.992 15.4062C197.846 14.8854 196.837 14.2799 195.965 13.5898C195.105 12.8997 194.435 12.1055 193.953 11.207C193.471 10.2956 193.23 9.24089 193.23 8.04297C193.23 6.87109 193.478 5.80339 193.973 4.83984C194.48 3.8763 195.197 3.04948 196.121 2.35938C197.046 1.65625 198.133 1.11589 199.383 0.738281C200.646 0.360677 202.039 0.171875 203.562 0.171875C205.672 0.171875 207.495 0.55599 209.031 1.32422C210.581 2.09245 211.779 3.13411 212.625 4.44922C213.471 5.76432 213.895 7.24219 213.895 8.88281H208.543C208.543 7.9974 208.354 7.21615 207.977 6.53906C207.612 5.86198 207.052 5.32812 206.297 4.9375C205.555 4.54688 204.617 4.35156 203.484 4.35156C202.391 4.35156 201.479 4.51432 200.75 4.83984C200.034 5.16536 199.493 5.60807 199.129 6.16797C198.777 6.72786 198.602 7.35286 198.602 8.04297C198.602 8.5638 198.725 9.03255 198.973 9.44922C199.22 9.85286 199.591 10.237 200.086 10.6016C200.581 10.9531 201.193 11.2852 201.922 11.5977C202.664 11.8971 203.523 12.1966 204.5 12.4961C206.062 12.9648 207.43 13.4857 208.602 14.0586C209.786 14.6315 210.77 15.2826 211.551 16.0117C212.345 16.7409 212.938 17.5612 213.328 18.4727C213.732 19.3841 213.934 20.4193 213.934 21.5781C213.934 22.8021 213.693 23.8958 213.211 24.8594C212.729 25.8229 212.039 26.6432 211.141 27.3203C210.242 27.9974 209.161 28.5117 207.898 28.8633C206.648 29.2148 205.249 29.3906 203.699 29.3906C202.319 29.3906 200.952 29.2083 199.598 28.8438C198.257 28.4661 197.039 27.9062 195.945 27.1641C194.852 26.4089 193.979 25.4583 193.328 24.3125C192.677 23.1536 192.352 21.7995 192.352 20.25H197.742C197.742 21.1484 197.885 21.9167 198.172 22.5547C198.471 23.1797 198.888 23.694 199.422 24.0977C199.969 24.4883 200.607 24.7747 201.336 24.957C202.065 25.1393 202.853 25.2305 203.699 25.2305C204.793 25.2305 205.691 25.0807 206.395 24.7812C207.111 24.4688 207.645 24.0391 207.996 23.4922C208.361 22.9453 208.543 22.3203 208.543 21.6172Z" fill="white"/>
</svg>
